<svg xmlns="http://www.w3.org/2000/svg" viewBox="0 0 128 104" shape-rendering="crispEdges" width="128" height="104">
<defs>
  <!-- Eye glow -->
  <filter id="eg" x="-150%" y="-150%" width="400%" height="400%">
    <feGaussianBlur in="SourceGraphic" stdDeviation="5" result="b"/>
    <feColorMatrix in="b" type="matrix" values="0 0 0 0 0  1 0 0 0 0.96  0 0 0 0 0.77  0 0 0 1 0" result="bc"/>
    <feMerge><feMergeNode in="bc"/><feMergeNode in="SourceGraphic"/></feMerge>
  </filter>
  <!-- Collar glow -->
  <filter id="cg" x="-80%" y="-80%" width="260%" height="260%">
    <feGaussianBlur in="SourceGraphic" stdDeviation="2.5" result="b"/>
    <feMerge><feMergeNode in="b"/><feMergeNode in="SourceGraphic"/></feMerge>
  </filter>
  <!-- Scanline pattern -->
  <pattern id="scan" x="0" y="0" width="128" height="2" patternUnits="userSpaceOnUse">
    <rect width="128" height="1" fill="rgba(0,0,0,0.18)"/>
  </pattern>
</defs>

<!-- ── Body pixels (#1a1e35 visible against #080a12 page bg) ── -->

<!-- Row 0 (y=0): ear tips only -->
<rect x="16" y="0"  width="16" height="8" fill="#1a1e35"/>
<rect x="96" y="0"  width="16" height="8" fill="#1a1e35"/>

<!-- Row 1 (y=8): ears + pink inner -->
<rect x="8"  y="8"  width="24" height="8" fill="#1a1e35"/>
<rect x="32" y="8"  width="8"  height="8" fill="#ff82c0"/>
<rect x="88" y="8"  width="8"  height="8" fill="#ff82c0"/>
<rect x="96" y="8"  width="24" height="8" fill="#1a1e35"/>

<!-- Row 2 (y=16): ears + more pink inner -->
<rect x="8"  y="16" width="16" height="8" fill="#1a1e35"/>
<rect x="24" y="16" width="16" height="8" fill="#e06aaa"/>
<rect x="88" y="16" width="16" height="8" fill="#e06aaa"/>
<rect x="104" y="16" width="16" height="8" fill="#1a1e35"/>

<!-- Row 3 (y=24): full head top -->
<rect x="0" y="24" width="128" height="8" fill="#1a1e35"/>

<!-- Row 4 (y=32): full head -->
<rect x="0" y="32" width="128" height="8" fill="#1a1e35"/>

<!-- Row 5 (y=40): face + eyes -->
<rect x="0"  y="40" width="16"  height="8" fill="#1a1e35"/>
<rect x="40" y="40" width="48"  height="8" fill="#1a1e35"/>
<rect x="112" y="40" width="16" height="8" fill="#1a1e35"/>
<g filter="url(#eg)">
  <rect x="16" y="40" width="24" height="8" fill="#00f5c4"/>
  <rect x="88" y="40" width="24" height="8" fill="#00f5c4"/>
</g>

<!-- Row 6 (y=48): eyes + highlight -->
<rect x="0"  y="48" width="16"  height="8" fill="#1a1e35"/>
<rect x="40" y="48" width="48"  height="8" fill="#1a1e35"/>
<rect x="112" y="48" width="16" height="8" fill="#1a1e35"/>
<g filter="url(#eg)">
  <rect x="16" y="48" width="8" height="8" fill="#00f5c4"/>
  <rect x="32" y="48" width="8" height="8" fill="#00f5c4"/>
  <rect x="88" y="48" width="8" height="8" fill="#00f5c4"/>
  <rect x="104" y="48" width="8" height="8" fill="#00f5c4"/>
</g>
<!-- White highlight pixels (no glow) -->
<rect x="24" y="48" width="8" height="8" fill="#c8fff4"/>
<rect x="96" y="48" width="8" height="8" fill="#c8fff4"/>

<!-- Row 7 (y=56): eyes bottom -->
<rect x="0"  y="56" width="16"  height="8" fill="#1a1e35"/>
<rect x="40" y="56" width="48"  height="8" fill="#1a1e35"/>
<rect x="112" y="56" width="16" height="8" fill="#1a1e35"/>
<g filter="url(#eg)">
  <rect x="16" y="56" width="24" height="8" fill="#00f5c4"/>
  <rect x="88" y="56" width="24" height="8" fill="#00f5c4"/>
</g>

<!-- Row 8 (y=64): full face -->
<rect x="0" y="64" width="128" height="8" fill="#1a1e35"/>

<!-- Row 9 (y=72): whisker gaps at x=48 and x=72 -->
<rect x="0"  y="72" width="48" height="8" fill="#1a1e35"/>
<rect x="56" y="72" width="16" height="8" fill="#1a1e35"/>
<rect x="80" y="72" width="48" height="8" fill="#1a1e35"/>

<!-- Row 10 (y=80): mouth, gap at x=56 -->
<rect x="0"  y="80" width="56" height="8" fill="#1a1e35"/>
<rect x="64" y="80" width="64" height="8" fill="#1a1e35"/>

<!-- Row 11 (y=88): chin, narrower -->
<rect x="8" y="88" width="112" height="8" fill="#1a1e35"/>

<!-- Row 12 (y=96): collar — alternating purple / teal -->
<g filter="url(#cg)">
  <rect x="8"   y="96" width="8" height="8" fill="#b464ff"/>
  <rect x="16"  y="96" width="8" height="8" fill="#00f5c4"/>
  <rect x="24"  y="96" width="8" height="8" fill="#b464ff"/>
  <rect x="32"  y="96" width="8" height="8" fill="#00f5c4"/>
  <rect x="40"  y="96" width="8" height="8" fill="#b464ff"/>
  <rect x="48"  y="96" width="8" height="8" fill="#00f5c4"/>
  <rect x="56"  y="96" width="8" height="8" fill="#b464ff"/>
  <rect x="64"  y="96" width="8" height="8" fill="#00f5c4"/>
  <rect x="72"  y="96" width="8" height="8" fill="#b464ff"/>
  <rect x="80"  y="96" width="8" height="8" fill="#00f5c4"/>
  <rect x="88"  y="96" width="8" height="8" fill="#b464ff"/>
  <rect x="96"  y="96" width="8" height="8" fill="#00f5c4"/>
  <rect x="104" y="96" width="8" height="8" fill="#b464ff"/>
  <rect x="112" y="96" width="8" height="8" fill="#00f5c4"/>
</g>

<!-- Scanline overlay -->
<rect x="0" y="0" width="128" height="104" fill="url(#scan)"/>
</svg>
